# xmcd
#
# Track frame offsets: 
#        150
#        17526
#        34651
#        52219
#        70028
#        84863
#        103659
#        118972
#        138264
#        153782
#        170617
#        186273
#        202360
#        221152
#        238706
#        259955
#        279267
#        296867
#        312175
#        328075
#
# Disc length: 4612 seconds
#
# Revision: 0
# Processed by: cddbd v1.5.2PL0 Copyright (c) Steve Scherf et al.
# Submitted via: ExactAudioCopyFreeDBPlugin 1.0
#
DISCID=32120214
DTITLE=LeAnn Rimes - Whatever We Wanna - Disc 1
DYEAR=2006
DGENRE=Country
TTITLE0=Satisfied
TTITLE1=And It Feels Like
TTITLE2=For The First Time
TTITLE3=Save Myself
TTITLE4=Little More Time
TTITLE5=Roumour 'Bout A Revolution
TTITLE6=Destructive
TTITLE7=Strong
TTITLE8=Whatever We Wanna
TTITLE9=Everybody's Someone (ft. Brian McFadden)
TTITLE10=Headphones
TTITLE11=Long Night
TTITLE12=This Life
TTITLE13=Break Me Down
TTITLE14=Some People
TTITLE15=Wound Up
TTITLE16=The Safest Place
TTITLE17=Trouble With Good Bye
TTITLE18=Damn
TTITLE19=Suddenly
EXTD=
EXTT0=
EXTT1=
EXTT2=
EXTT3=
EXTT4=
EXTT5=
EXTT6=
EXTT7=
EXTT8=
EXTT9=
EXTT10=
EXTT11=
EXTT12=
EXTT13=
EXTT14=
EXTT15=
EXTT16=
EXTT17=
EXTT18=
EXTT19=
PLAYORDER=
